<?xml version="1.0" standalone="no"?>
<!DOCTYPE svg PUBLIC "-//W3C//DTD SVG 20010904//EN"
 "http://www.w3.org/TR/2001/REC-SVG-20010904/DTD/svg10.dtd">
<svg version="1.0" xmlns="http://www.w3.org/2000/svg"
 width="512.000000pt" height="512.000000pt" viewBox="0 0 512.000000 512.000000"
 preserveAspectRatio="xMidYMid meet">
<metadata>
Created by potrace 1.14, written by Peter Selinger 2001-2017
</metadata>
<g transform="translate(0.000000,512.000000) scale(0.100000,-0.100000)"
fill="#000000" stroke="none">
<path d="M3246 4923 c-3 -4 -17 -8 -29 -10 -12 -2 -28 -11 -34 -20 -7 -9 -13
-13 -13 -8 0 4 -12 -5 -26 -20 -14 -15 -23 -34 -20 -41 3 -8 -1 -14 -8 -14
-10 0 -13 -11 -12 -35 1 -19 -2 -35 -7 -35 -5 0 -1 -7 7 -16 18 -17 21 -28 6
-19 -18 11 -11 -1 19 -33 16 -16 32 -28 35 -24 3 3 6 0 6 -6 0 -6 14 -13 30
-17 17 -4 30 -11 30 -16 0 -6 6 -7 13 -3 9 6 9 5 0 -7 -10 -12 -9 -21 1 -41
13 -24 12 -27 -15 -47 l-28 -21 -67 21 c-37 11 -74 22 -83 24 -175 36 -206 41
-321 52 -132 12 -346 6 -465 -13 -16 -3 -45 -7 -63 -9 -36 -4 -231 -53 -243
-61 -4 -2 -20 7 -35 21 -21 20 -37 25 -75 25 -27 0 -49 -4 -49 -10 0 -5 -6
-10 -13 -10 -19 0 -48 -34 -50 -59 -1 -11 -3 -21 -5 -21 -2 0 -24 18 -49 40
-25 22 -51 40 -57 41 -28 2 -55 9 -111 29 -32 12 -79 23 -104 24 -86 5 -219
-40 -207 -70 3 -8 -11 -36 -31 -62 -33 -43 -79 -133 -113 -220 -7 -18 -16 -29
-19 -24 -7 12 -81 7 -90 -5 -3 -4 -12 -8 -20 -8 -8 0 -28 -17 -45 -38 -23 -30
-31 -49 -32 -85 -1 -26 3 -55 8 -65 6 -12 6 -23 -3 -33 -6 -8 -9 -14 -6 -14 3
0 0 -12 -8 -27 -10 -18 -11 -31 -4 -39 7 -8 6 -14 -2 -19 -8 -6 -7 -10 2 -16
11 -7 10 -9 -3 -9 -9 0 -24 -3 -34 -7 -12 -4 -15 -3 -10 6 6 10 4 10 -10 2
-11 -6 -43 -20 -71 -32 -29 -12 -53 -25 -53 -30 0 -4 -8 -10 -18 -13 -22 -7
-73 -86 -88 -135 -12 -44 -8 -139 7 -158 6 -7 10 -13 8 -14 -6 -1 -41 -7 -77
-13 -18 -3 -40 -12 -48 -21 -9 -8 -20 -12 -26 -9 -7 4 -8 2 -4 -5 4 -6 0 -14
-8 -17 -9 -3 -14 -9 -12 -13 3 -3 1 -22 -3 -41 -9 -43 27 -120 56 -120 5 0 9
-17 8 -37 -2 -52 13 -93 34 -93 10 0 18 -6 18 -14 0 -8 -6 -12 -14 -9 -7 3
-13 0 -13 -5 0 -6 -11 -23 -24 -37 -13 -14 -23 -33 -22 -43 3 -18 -15 -42 -26
-35 -5 2 -8 0 -8 -6 0 -6 -7 -8 -15 -5 -8 4 -15 1 -15 -4 0 -6 -9 -14 -20 -17
-11 -3 -20 -12 -20 -20 0 -7 -8 -16 -17 -19 -12 -5 -13 -10 -5 -18 8 -8 8 -15
0 -28 -7 -10 -8 -25 -3 -36 5 -11 7 -22 7 -26 -1 -5 3 -8 8 -8 6 0 10 -7 10
-16 0 -8 3 -13 8 -11 4 2 17 -6 30 -19 12 -13 19 -24 14 -24 -4 0 -8 -11 -8
-25 0 -14 4 -25 8 -25 4 0 8 -6 8 -14 0 -7 12 -21 26 -31 15 -9 23 -12 20 -6
-4 6 -2 11 4 11 9 0 10 -9 4 -27 -13 -47 -8 -116 11 -129 14 -10 16 -21 10
-56 -9 -58 -7 -101 7 -109 6 -4 8 -15 4 -25 -4 -10 -4 -16 -1 -13 8 9 76 -58
80 -80 2 -11 -3 -25 -11 -32 -8 -6 -14 -20 -14 -30 0 -11 -4 -19 -8 -19 -4 0
-8 -10 -9 -22 -1 -11 -8 -25 -15 -29 -8 -5 -8 -9 -2 -9 6 0 10 -12 9 -28 -4
-71 52 -159 117 -182 24 -9 41 -24 52 -47 21 -44 21 -45 -13 -40 -20 4 -31 0
-35 -10 -3 -8 -11 -11 -18 -7 -8 5 -9 2 -5 -9 3 -9 2 -19 -3 -22 -15 -9 22
-54 45 -54 21 0 55 21 55 33 0 4 -4 5 -9 1 -5 -3 -13 -1 -16 5 -4 6 -1 9 7 8
8 -2 12 4 10 15 -5 28 5 20 28 -25 41 -79 83 -153 116 -206 32 -49 43 -90 27
-93 -39 -7 -56 -9 -113 -15 -36 -4 -82 -7 -102 -7 -21 -1 -38 -3 -38 -6 0 -5
-53 -10 -142 -14 -16 -1 -28 -4 -28 -7 0 -3 -19 -5 -43 -6 -23 -1 -64 -4 -92
-8 -27 -4 -64 -8 -80 -11 -48 -6 -59 -9 -67 -20 -5 -6 -8 -5 -8 3 0 9 -5 10
-19 2 -14 -7 -21 -6 -24 3 -3 6 -6 4 -6 -7 -1 -15 -4 -16 -15 -7 -11 9 -16 9
-22 0 -4 -8 -3 -9 4 -5 7 4 12 3 12 -1 0 -5 16 -15 35 -22 20 -7 48 -24 63
-38 33 -31 102 -68 121 -64 8 1 10 -2 5 -10 -5 -8 -3 -10 5 -5 7 5 21 0 31 -9
10 -9 24 -14 29 -10 6 3 11 1 11 -4 0 -6 7 -11 15 -11 8 0 30 -9 49 -19 19
-11 37 -17 40 -14 3 4 6 1 6 -6 0 -7 4 -10 9 -6 6 3 25 -3 44 -14 19 -11 38
-17 41 -14 3 4 6 1 6 -6 0 -7 3 -10 8 -7 4 2 15 -2 25 -9 18 -13 17 -14 -5
-26 -13 -7 -26 -12 -30 -11 -5 1 -8 -5 -8 -14 0 -8 -4 -13 -9 -10 -5 3 -14 -1
-21 -9 -7 -8 -19 -15 -27 -15 -7 0 -16 -6 -19 -14 -3 -8 -17 -17 -30 -20 -15
-4 -22 -11 -18 -18 4 -6 3 -8 -4 -4 -6 3 -17 -1 -25 -9 -9 -8 -20 -15 -26 -15
-5 0 -15 -8 -20 -17 -6 -10 -11 -14 -11 -10 0 5 -13 -1 -29 -12 -16 -12 -34
-21 -39 -21 -5 0 -13 -7 -16 -16 -3 -8 -10 -13 -15 -9 -6 3 -13 -1 -18 -8 -4
-7 -24 -20 -43 -29 -19 -9 -41 -26 -49 -37 -8 -11 -18 -18 -23 -15 -4 3 -11
-2 -14 -10 -3 -9 -11 -16 -16 -16 -5 0 -22 -9 -38 -20 -15 -11 -30 -17 -33
-14 -3 3 -8 -4 -12 -15 -3 -12 -11 -18 -17 -15 -6 4 -8 -3 -6 -17 3 -21 8 -24
51 -24 31 0 47 4 47 13 0 14 46 16 55 2 3 -5 17 -10 31 -10 14 0 23 4 20 8 -3
5 11 9 32 9 71 0 117 7 124 17 5 8 8 7 8 -1 0 -8 9 -9 30 -3 19 5 30 5 30 -1
0 -6 8 -5 21 1 11 7 27 9 34 6 8 -3 17 -1 19 3 3 4 21 7 40 6 19 -1 33 1 31 5
-2 3 17 7 43 7 70 3 106 8 120 16 7 5 12 3 12 -5 0 -8 3 -9 8 -3 7 10 22 12
124 17 32 2 58 5 58 8 0 3 12 5 28 6 45 1 77 8 84 19 5 6 8 6 8 -2 0 -7 9 -10
22 -7 23 6 74 11 163 19 28 2 50 4 50 5 0 2 38 6 115 12 25 2 52 8 59 13 10 6
12 4 6 -5 -6 -9 -4 -11 5 -5 8 5 30 9 49 9 36 1 36 1 35 44 -1 23 -1 42 0 42
1 0 42 -20 92 -44 133 -66 265 -115 404 -151 3 0 23 -5 45 -10 22 -5 42 -9 45
-10 6 -1 96 -16 130 -21 143 -22 414 -22 560 0 28 5 105 18 125 23 55 12 71
15 80 17 176 44 317 101 539 220 35 18 57 7 49 -24 -3 -11 1 -28 8 -37 8 -10
9 -14 2 -10 -8 5 -11 1 -10 -12 0 -11 5 -17 9 -15 4 3 8 1 8 -4 0 -5 9 -12 20
-15 11 -3 20 -2 20 2 0 4 9 7 20 7 11 0 20 -3 20 -6 0 -4 12 -7 28 -7 15 0 61
-4 102 -8 41 -4 87 -8 103 -9 15 0 27 -4 27 -8 0 -4 7 -5 15 -2 8 4 21 1 28
-4 8 -7 18 -7 27 -2 8 5 21 5 32 -1 13 -7 18 -6 18 2 0 8 4 8 13 1 6 -6 32
-11 57 -13 25 -2 48 -8 52 -14 5 -7 8 -6 8 2 0 8 9 9 31 3 18 -5 36 -7 40 -4
5 3 14 2 21 -2 6 -4 28 -8 47 -9 20 -1 36 -3 36 -4 0 -2 105 -12 145 -14 14 0
28 -5 32 -11 5 -8 8 -7 8 1 0 8 9 9 35 2 19 -6 39 -7 44 -4 5 3 12 1 15 -3 3
-5 15 -8 28 -7 13 1 31 -2 41 -7 11 -6 17 -5 17 2 0 6 4 9 9 5 13 -7 73 -15
148 -19 35 -1 66 -6 70 -11 5 -4 2 -5 -6 0 -8 5 -12 4 -8 -1 3 -5 32 -9 64 -9
l58 0 3 46 3 46 -83 54 c-46 29 -86 58 -90 64 -4 5 -8 6 -8 2 0 -5 -7 -2 -15
5 -34 31 -43 36 -49 31 -3 -4 -6 -1 -6 5 0 6 -8 13 -19 17 -10 3 -31 17 -47
30 -16 14 -35 25 -41 25 -7 0 -13 5 -13 10 0 6 -9 10 -21 10 -11 0 -17 4 -14
10 3 5 0 10 -7 10 -7 0 -25 11 -40 24 -14 14 -29 22 -32 19 -3 -4 -6 -2 -6 4
0 6 -14 16 -31 23 l-30 13 23 22 c13 12 29 20 36 17 6 -2 12 0 12 6 0 9 47 27
63 24 4 -1 7 3 7 9 0 5 5 7 10 4 6 -3 13 0 16 9 3 8 12 12 19 10 7 -3 16 0 20
5 3 6 11 9 16 6 5 -4 9 -1 9 4 0 6 8 11 18 11 9 0 34 9 55 20 20 11 40 21 44
23 5 1 7 5 6 9 -2 4 3 5 11 2 7 -3 21 2 30 11 9 9 16 13 16 9 0 -4 12 4 28 18
15 13 44 32 64 42 45 20 52 30 33 46 -12 10 -15 10 -15 -1 0 -9 -3 -10 -8 -4
-6 10 -35 15 -114 20 -15 1 -31 4 -34 8 -12 11 -26 8 -18 -4 4 -8 1 -8 -12 -2
-11 5 -35 11 -54 12 -50 4 -85 9 -85 11 0 1 -22 4 -50 5 -27 2 -51 4 -52 5 -2
1 -20 4 -40 5 -21 1 -67 6 -103 10 -36 4 -84 8 -107 8 -24 1 -43 5 -43 10 0 5
-6 4 -14 -2 -11 -10 -16 -8 -20 6 -3 10 -5 22 -5 27 0 5 -5 13 -13 17 -7 5 -8
9 -2 9 5 0 10 11 10 25 0 23 -7 30 -28 26 -15 -2 -8 18 26 76 106 182 217 494
240 678 3 22 9 65 13 95 19 139 6 512 -22 610 -2 8 -7 29 -10 45 -9 55 -13 72
-35 146 -27 94 -64 194 -107 288 -37 82 -40 96 -18 87 8 -3 14 0 12 7 -1 7 3
11 9 10 16 -3 9 44 -9 62 -17 17 -52 21 -42 5 3 -5 1 -10 -5 -10 -6 0 -8 -4
-5 -10 3 -5 2 -10 -2 -10 -5 0 -15 12 -24 26 -15 24 -14 29 12 80 16 30 24 54
18 54 -7 0 -5 10 5 24 10 17 12 27 5 31 -6 4 -8 13 -5 20 2 7 -1 18 -7 24 -6
6 -12 18 -13 26 -3 21 -47 74 -61 74 -7 1 -13 4 -13 9 0 11 -50 30 -93 35 -21
3 -41 8 -45 13 -4 4 2 4 12 0 16 -5 17 -4 6 9 -10 12 -9 15 5 15 10 0 24 8 32
18 8 9 11 11 7 3 -5 -10 -3 -12 5 -7 7 5 10 10 7 13 -3 3 -1 14 4 24 7 11 6
27 -1 46 -12 33 -46 67 -53 54 -3 -5 -19 -7 -35 -6 -19 1 -32 -3 -35 -12 -3
-8 -1 -11 4 -8 6 3 10 0 10 -7 0 -9 3 -9 10 2 8 13 10 12 10 -4 0 -13 -5 -16
-17 -11 -10 4 -26 10 -35 12 -10 3 -18 10 -18 15 0 5 5 6 10 3 6 -3 10 3 10
14 0 12 5 21 11 21 6 0 9 9 6 20 -3 11 0 20 6 20 7 0 5 5 -3 10 -8 5 -11 10
-7 10 5 0 1 7 -8 16 -9 9 -14 22 -11 30 3 8 -2 11 -15 9 -10 -2 -19 0 -19 6 0
5 10 9 21 9 18 0 19 2 9 15 -11 13 -10 14 5 9 15 -6 15 -4 4 13 -8 14 -22 20
-45 19 -38 -1 -53 -13 -59 -45 -4 -21 -30 -50 -46 -51 -7 0 -22 -40 -20 -52 2
-18 -10 -6 -19 16 -6 18 -20 27 -45 32 -29 5 -35 11 -36 33 -1 14 -1 29 0 34
0 4 -4 7 -11 7 -9 0 -9 3 0 12 19 19 14 34 -13 46 -32 15 -38 15 -30 2 3 -5 0
-7 -7 -5 -7 3 -18 15 -23 28 -6 12 -18 21 -27 21 -10 -1 -15 2 -12 7 3 5 -2 9
-10 9 -8 0 -18 -5 -22 -12 -5 -7 -3 -8 7 -3 11 7 11 5 -1 -11 -22 -29 -24 -30
-17 -12 3 10 2 20 -4 24 -6 3 -8 12 -5 20 3 8 1 14 -5 14 -5 0 1 11 15 23 14
13 23 27 19 30 -3 4 -1 7 6 7 7 0 11 6 8 14 -3 8 1 17 9 20 9 3 12 11 9 16 -4
6 -8 25 -11 43 -4 38 -59 91 -86 84 -10 -3 -21 -1 -24 5 -3 5 -12 7 -19 4 -9
-3 -13 1 -11 12 3 18 -30 54 -55 61 -34 8 -44 8 -52 -3 -5 -6 -7 0 -4 16 2 15
0 25 -5 22 -5 -3 -8 0 -6 8 4 19 -32 62 -67 80 -39 20 -80 29 -89 21z m381
-388 c0 -8 -4 -12 -9 -9 -4 3 -8 9 -8 15 0 5 4 9 8 9 5 0 9 -7 9 -15z m-2114
-34 c33 -13 28 -30 -8 -26 -14 1 -25 -2 -25 -7 0 -6 -7 -8 -15 -5 -8 4 -17 2
-20 -3 -3 -5 -13 -6 -22 -3 -10 4 -14 2 -10 -4 4 -6 -3 -14 -16 -17 -12 -3
-31 -14 -42 -24 -26 -22 -89 -102 -80 -102 3 0 0 -10 -7 -22 -17 -31 -21 -121
-5 -111 8 4 7 1 -1 -9 -10 -13 -10 -17 0 -20 7 -3 -1 -16 -21 -34 -35 -31 -83
-51 -75 -30 2 6 -6 33 -19 58 -17 33 -21 50 -13 58 5 5 7 10 3 10 -4 0 -3 9 3
20 6 11 21 20 34 20 18 0 27 8 35 30 6 20 7 30 0 30 -6 0 -8 4 -5 9 4 5 1 11
-5 13 -12 4 8 58 22 58 4 0 11 9 14 21 6 16 13 20 34 16 22 -4 31 1 54 34 15
22 37 44 50 48 27 11 103 7 140 -8z m2155 -171 c7 0 10 -4 7 -10 -3 -5 -2 -10
4 -10 6 0 8 -7 5 -15 -5 -12 -9 -11 -26 5 -12 11 -25 17 -30 14 -12 -8 -29 6
-22 18 3 5 16 7 28 4 11 -3 27 -6 34 -6z m312 -85 c0 -1 -10 -10 -22 -21 -12
-10 -18 -14 -15 -7 4 6 1 14 -5 16 -10 4 -10 8 1 15 12 8 41 6 41 -3z m-3586
-1340 c-4 -8 -11 -15 -16 -15 -6 0 -5 6 2 15 7 8 14 15 16 15 2 0 1 -7 -2 -15z"/>
<path d="M3911 4431 c-19 -15 -22 -23 -16 -49 3 -18 13 -33 21 -33 8 -1 20 -2
27 -3 18 -3 48 14 42 23 -3 5 2 12 10 15 14 5 14 8 0 29 -8 13 -13 26 -10 29
14 14 -54 4 -74 -11z"/>
<path d="M4160 4298 c-2 -5 -3 -12 -4 -17 0 -5 -5 -13 -10 -18 -5 -5 -6 -3 -2
5 4 6 2 12 -3 12 -10 0 -15 -15 -8 -23 1 -2 -3 -10 -10 -18 -15 -19 4 -46 37
-51 30 -4 75 39 60 57 -6 7 -7 15 -3 18 3 4 1 7 -6 7 -7 0 -9 5 -5 12 5 7 0 9
-14 6 -12 -3 -23 -1 -26 6 -2 6 -5 8 -6 4z"/>
<path d="M4349 4053 c-1 -4 -1 -12 0 -17 1 -5 -5 -3 -14 4 -13 11 -15 10 -10
-3 4 -8 -1 -21 -12 -28 -10 -8 -19 -21 -21 -29 -2 -8 -1 -12 3 -8 4 4 14 1 22
-7 33 -34 85 -6 89 46 1 16 -55 57 -57 42z"/>
<path d="M4295 4020 c-3 -5 -2 -10 4 -10 5 0 13 5 16 10 3 6 2 10 -4 10 -5 0
-13 -4 -16 -10z"/>
<path d="M739 3996 c-1 -6 -1 -15 0 -19 1 -5 -3 -6 -9 -2 -6 3 -7 12 -4 18 5
9 4 9 -5 1 -26 -23 -22 -84 5 -84 8 0 14 -5 14 -11 0 -8 5 -8 15 1 8 7 15 10
15 6 0 -3 9 3 20 14 25 25 25 41 3 67 -19 21 -52 27 -54 9z"/>
<path d="M4502 3937 c-21 -27 -25 -40 -11 -32 12 7 12 6 1 -7 -11 -14 -10 -19
9 -37 12 -11 25 -19 28 -18 62 27 81 55 56 81 -8 7 -12 16 -9 18 2 3 -11 5
-30 6 -19 1 -38 -4 -44 -11z"/>
<path d="M4497 3712 c-17 -3 -17 -5 -3 -21 14 -15 13 -17 -4 -17 -10 0 -16 4
-14 8 3 4 -2 5 -10 2 -13 -5 -14 -32 -2 -53 3 -5 18 -12 32 -15 29 -8 60 16
58 44 0 8 -2 24 -2 34 -1 11 -5 16 -9 13 -3 -4 -11 -3 -17 1 -6 5 -19 7 -29 4z"/>
<path d="M263 3590 c2 -10 1 -24 -4 -31 -5 -8 -9 -9 -9 -3 0 7 -8 14 -19 17
-14 3 -18 -1 -17 -17 2 -49 73 -69 103 -29 10 13 10 22 -5 46 -19 34 -57 47
-49 17z"/>
<path d="M121 3336 c-20 -24 -22 -62 -4 -77 14 -12 16 -12 9 1 -4 8 0 6 8 -4
9 -11 16 -15 16 -9 0 6 9 9 20 6 12 -3 20 0 20 6 0 7 4 10 8 7 4 -2 9 9 10 25
1 16 -3 29 -8 29 -6 0 -9 4 -6 9 3 5 -4 11 -17 15 -33 9 -43 7 -56 -8z m29 -4
c0 -13 -12 -22 -22 -16 -10 6 -1 24 13 24 5 0 9 -4 9 -8z"/>
<path d="M366 3183 c-6 -15 -8 -15 -16 -3 -6 9 -10 10 -10 3 0 -7 8 -17 18
-23 15 -10 14 -10 -4 -5 -16 4 -23 0 -27 -15 -11 -41 48 -66 87 -37 22 16 29
67 10 67 -8 0 -14 5 -14 12 0 6 -3 8 -7 5 -3 -4 -12 -2 -18 3 -9 8 -15 5 -19
-7z"/>
<path d="M406 2134 c-11 -8 -16 -14 -11 -14 5 0 1 -6 -9 -13 -25 -18 -13 -55
21 -68 31 -11 40 -4 45 33 2 15 8 31 13 35 4 4 5 3 1 -4 -3 -6 -2 -14 3 -17
13 -9 8 19 -8 38 -7 9 -17 14 -21 11 -5 -3 -10 -1 -12 4 -1 5 -12 3 -22 -5z"/>
<path d="M326 1947 c-10 -7 -19 -25 -20 -40 -3 -22 3 -31 25 -42 39 -21 61
-11 48 21 -6 17 -6 23 1 19 6 -3 10 -1 10 5 0 6 4 9 8 6 5 -3 9 1 9 9 0 26
-55 41 -81 22z"/>
<path d="M410 1724 c0 -8 -5 -14 -10 -14 -6 0 -10 -17 -8 -40 2 -34 5 -40 22
-37 12 1 27 6 35 11 10 6 12 5 7 -2 -4 -7 -2 -12 3 -12 6 0 11 4 11 9 0 5 7
17 16 25 12 12 12 16 2 16 -10 0 -10 2 -1 8 10 7 10 12 -1 27 -16 23 -76 30
-76 9z"/>
</g>
</svg>
